<svg width="27" height="20" viewBox="0 0 27 20" fill="none" xmlns="http://www.w3.org/2000/svg">
<path d="M15.9167 6.63337C15.9167 6.51254 15.9569 6.39674 16.0375 6.28598C16.1181 6.17521 16.2087 6.09969 16.3094 6.05942C16.9135 5.83789 17.5328 5.66671 18.1672 5.54587C18.8016 5.42504 19.4611 5.36462 20.1458 5.36462C20.5889 5.36462 21.0219 5.3898 21.4448 5.44014C21.8677 5.49049 22.2806 5.56601 22.6833 5.66671C22.8042 5.70698 22.9149 5.78251 23.0156 5.89327C23.1163 6.00403 23.1667 6.1299 23.1667 6.27087C23.1667 6.4924 23.0911 6.66358 22.9401 6.78442C22.7891 6.90525 22.6028 6.93546 22.3813 6.87504C22.0389 6.77435 21.6814 6.69883 21.3089 6.64848C20.9363 6.59813 20.5486 6.57296 20.1458 6.57296C19.5618 6.57296 18.9979 6.62834 18.4542 6.7391C17.9104 6.84987 17.3767 7.01601 16.8531 7.23754C16.5712 7.33823 16.3446 7.3332 16.1734 7.22244C16.0023 7.11167 15.9167 6.91532 15.9167 6.63337ZM15.9167 13.2792C15.9167 13.1584 15.9569 13.0375 16.0375 12.9167C16.1181 12.7959 16.2087 12.7153 16.3094 12.675C16.9135 12.4535 17.5328 12.2874 18.1672 12.1766C18.8016 12.0658 19.4611 12.0105 20.1458 12.0105C20.5889 12.0105 21.0219 12.0356 21.4448 12.086C21.8677 12.1363 22.2806 12.2118 22.6833 12.3125C22.8042 12.3528 22.9149 12.4283 23.0156 12.5391C23.1163 12.6499 23.1667 12.7757 23.1667 12.9167C23.1667 13.1382 23.0911 13.3094 22.9401 13.4302C22.7891 13.5511 22.6028 13.5813 22.3813 13.5209C22.0389 13.4202 21.6814 13.3447 21.3089 13.2943C20.9363 13.244 20.5486 13.2188 20.1458 13.2188C19.5618 13.2188 18.9979 13.2691 18.4542 13.3698C17.9104 13.4705 17.3767 13.6316 16.8531 13.8532C16.5712 13.9539 16.3446 13.9539 16.1734 13.8532C16.0023 13.7525 15.9167 13.5612 15.9167 13.2792ZM15.9167 9.95629C15.9167 9.83546 15.9569 9.71966 16.0375 9.60889C16.1181 9.49813 16.2087 9.42261 16.3094 9.38233C16.9135 9.1608 17.5328 8.98962 18.1672 8.86879C18.8016 8.74796 19.4611 8.68754 20.1458 8.68754C20.5889 8.68754 21.0219 8.71271 21.4448 8.76306C21.8677 8.81341 22.2806 8.88893 22.6833 8.98962C22.8042 9.0299 22.9149 9.10542 23.0156 9.21619C23.1163 9.32695 23.1667 9.45282 23.1667 9.59379C23.1667 9.81532 23.0911 9.9865 22.9401 10.1073C22.7891 10.2282 22.6028 10.2584 22.3813 10.198C22.0389 10.0973 21.6814 10.0217 21.3089 9.97139C20.9363 9.92105 20.5486 9.89587 20.1458 9.89587C19.5618 9.89587 18.9979 9.95126 18.4542 10.062C17.9104 10.1728 17.3767 10.3389 16.8531 10.5605C16.5712 10.6612 16.3446 10.6561 16.1734 10.5454C16.0023 10.4346 15.9167 10.2382 15.9167 9.95629ZM6.49167 15.9375C7.57917 15.9375 8.63142 16.0634 9.64844 16.3151C10.6655 16.5669 11.6674 16.9445 12.6542 17.448V4.549C11.7479 3.94483 10.7661 3.4766 9.70885 3.14431C8.65156 2.81202 7.57917 2.64587 6.49167 2.64587C5.72639 2.64587 4.97622 2.74153 4.24115 2.93285C3.50608 3.12417 2.76597 3.3608 2.02083 3.64275V16.7532C2.64514 16.4712 3.35503 16.2648 4.15052 16.1339C4.94601 16.003 5.72639 15.9375 6.49167 15.9375ZM14.4667 17.448C15.4736 16.9445 16.4604 16.5669 17.4271 16.3151C18.3938 16.0634 19.4208 15.9375 20.5083 15.9375C21.2736 15.9375 22.0641 15.998 22.8797 16.1188C23.6953 16.2396 24.3951 16.4007 24.9792 16.6021V3.64275C24.2944 3.30039 23.5694 3.04865 22.8042 2.88754C22.0389 2.72643 21.2736 2.64587 20.5083 2.64587C19.4208 2.64587 18.3686 2.81202 17.3516 3.14431C16.3345 3.4766 15.3729 3.94483 14.4667 4.549V17.448ZM13.5604 19.8344C13.3993 19.8344 13.2533 19.8193 13.1224 19.7891C12.9915 19.7589 12.8757 19.7035 12.775 19.623C11.8285 19.0389 10.8215 18.5858 9.75417 18.2636C8.68681 17.9414 7.59931 17.7802 6.49167 17.7802C5.74653 17.7802 5.02153 17.8709 4.31667 18.0521C3.61181 18.2334 2.90694 18.4549 2.20208 18.7167C1.73889 18.9382 1.2908 18.908 0.857813 18.6261C0.424827 18.3441 0.208333 17.9414 0.208333 17.4177V3.43129C0.208333 3.12921 0.27882 2.8523 0.419792 2.60056C0.560764 2.34883 0.772222 2.15247 1.05417 2.0115C1.9 1.60872 2.78108 1.31167 3.6974 1.12035C4.61372 0.929034 5.54514 0.833374 6.49167 0.833374C7.76042 0.833374 8.99392 1.00455 10.1922 1.34692C11.3905 1.68928 12.5132 2.21289 13.5604 2.91775C14.5875 2.21289 15.6901 1.68928 16.8682 1.34692C18.0464 1.00455 19.2597 0.833374 20.5083 0.833374C21.4549 0.833374 22.3813 0.929034 23.2875 1.12035C24.1938 1.31167 25.0698 1.60872 25.9156 2.0115C26.1976 2.15247 26.4141 2.34883 26.5651 2.60056C26.7161 2.8523 26.7917 3.12921 26.7917 3.43129V17.4177C26.7917 17.9816 26.5651 18.4096 26.112 18.7016C25.6589 18.9936 25.2108 18.9986 24.7677 18.7167C24.083 18.4348 23.3882 18.2082 22.6833 18.037C21.9785 17.8658 21.2535 17.7802 20.5083 17.7802C19.4208 17.7802 18.3535 17.9414 17.3063 18.2636C16.259 18.5858 15.2722 19.0389 14.3458 19.623C14.2451 19.7035 14.1293 19.7589 13.9984 19.7891C13.8675 19.8193 13.7215 19.8344 13.5604 19.8344V19.8344Z" fill="url(#paint0_linear_3_214)"/>
<defs>
<linearGradient id="paint0_linear_3_214" x1="66.6667" y1="3.2085" x2="66.6667" y2="22.2095" gradientUnits="userSpaceOnUse">
<stop stop-color="#DD700C"/>
<stop offset="1" stop-color="#F8AA4E"/>
</linearGradient>
</defs>
</svg>
