<svg width="29" height="29" viewBox="0 0 29 29" fill="none" xmlns="http://www.w3.org/2000/svg">
<path d="M16.0406 26.5833C15.5774 26.5833 15.2401 26.4322 15.0286 26.1302C14.8172 25.8281 14.792 25.4555 14.9531 25.0125L19.3937 13.2312C19.5146 12.909 19.7361 12.6371 20.0583 12.4156C20.3806 12.1941 20.7128 12.0833 21.0552 12.0833C21.3976 12.0833 21.7349 12.1941 22.0672 12.4156C22.3995 12.6371 22.626 12.909 22.7469 13.2312L27.2781 24.8916C27.4594 25.3548 27.4392 25.7526 27.2177 26.0849C26.9962 26.4171 26.6236 26.5833 26.1 26.5833C25.8785 26.5833 25.667 26.5128 25.4656 26.3718C25.2642 26.2309 25.1233 26.0496 25.0427 25.8281L24.0458 22.777H18.2458L17.0979 25.8583C17.0174 26.0597 16.8764 26.2309 16.675 26.3718C16.4736 26.5128 16.2622 26.5833 16.0406 26.5833V26.5833ZM18.9104 20.6625H23.2L21.0854 14.802H21.025L18.9104 20.6625ZM8.73021 10.3312C9.03229 10.8548 9.36458 11.3633 9.72708 11.8567C10.0896 12.3501 10.4823 12.8586 10.9052 13.3823C11.8115 12.4357 12.5667 11.454 13.1708 10.4369C13.775 9.41992 14.2885 8.3576 14.7115 7.24996H2.41667C2.07431 7.24996 1.78733 7.13416 1.55573 6.90256C1.32413 6.67097 1.20833 6.38399 1.20833 6.04163C1.20833 5.69926 1.32413 5.41229 1.55573 5.18069C1.78733 4.94909 2.07431 4.83329 2.41667 4.83329H9.66667V3.62496C9.66667 3.2826 9.78247 2.99562 10.0141 2.76402C10.2457 2.53242 10.5326 2.41663 10.875 2.41663C11.2174 2.41663 11.5043 2.53242 11.7359 2.76402C11.9675 2.99562 12.0833 3.2826 12.0833 3.62496V4.83329H19.3333C19.6757 4.83329 19.9627 4.94909 20.1943 5.18069C20.4259 5.41229 20.5417 5.69926 20.5417 6.04163C20.5417 6.38399 20.4259 6.67097 20.1943 6.90256C19.9627 7.13416 19.6757 7.24996 19.3333 7.24996H17.1281C16.6851 8.63954 16.096 10.004 15.3609 11.3432C14.6259 12.6824 13.7247 13.9562 12.6573 15.1645L15.6177 18.1552L14.7115 20.602L10.875 16.9166L5.64896 22.1427C5.42743 22.3642 5.15556 22.475 4.83333 22.475C4.51111 22.475 4.23924 22.3541 4.01771 22.1125C3.77604 21.8909 3.65521 21.6191 3.65521 21.2968C3.65521 20.9746 3.77604 20.6927 4.01771 20.451L9.33438 15.1343C8.81076 14.51 8.31736 13.8807 7.85417 13.2463C7.39097 12.6119 6.96806 11.9625 6.58542 11.2979C6.34375 10.8548 6.32361 10.4722 6.525 10.15C6.72639 9.82774 7.08889 9.66663 7.6125 9.66663C7.83403 9.66663 8.05052 9.73208 8.26198 9.86298C8.47344 9.99388 8.62951 10.15 8.73021 10.3312V10.3312Z" fill="url(#paint0_linear_3_215)"/>
<defs>
<linearGradient id="paint0_linear_3_215" x1="66.6887" y1="5.43746" x2="66.6887" y2="29.6041" gradientUnits="userSpaceOnUse">
<stop stop-color="#DD700C"/>
<stop offset="1" stop-color="#F8AA4E"/>
</linearGradient>
</defs>
</svg>
