<svg width="106" height="35" viewBox="0 0 106 35" fill="none" xmlns="http://www.w3.org/2000/svg">
<path d="M11.064 21.28H7.992V34H0.119995V0.736023H11.016C15.56 0.736023 18.968 1.56802 21.24 3.23202C23.544 4.89602 24.696 7.44002 24.696 10.864C24.696 13.008 24.184 14.8 23.16 16.24C22.136 17.648 20.52 18.848 18.312 19.84L26.76 34H17.88L11.064 21.28ZM7.992 15.856H11.304C13.064 15.856 14.376 15.456 15.24 14.656C16.136 13.856 16.584 12.592 16.584 10.864C16.584 9.26402 16.104 8.09602 15.144 7.36002C14.216 6.62402 12.776 6.25602 10.824 6.25602H7.992V15.856Z" fill="#222222"/>
<path d="M51.105 34H44.529L44.193 30.784C42.337 33.472 39.761 34.816 36.465 34.816C34.129 34.816 32.353 34.112 31.137 32.704C29.953 31.296 29.361 29.328 29.361 26.8V8.51202H36.945V25.84C36.945 27.088 37.137 27.968 37.521 28.48C37.937 28.96 38.561 29.2 39.393 29.2C40.993 29.2 42.369 28.208 43.521 26.224V8.51202H51.105V34Z" fill="#222222"/>
<path d="M77.3257 26.608C77.3257 27.568 77.4537 28.272 77.7097 28.72C77.9977 29.168 78.4457 29.504 79.0537 29.728L77.4697 34.672C75.9017 34.544 74.6217 34.208 73.6297 33.664C72.6377 33.088 71.8697 32.192 71.3257 30.976C69.6617 33.536 67.1017 34.816 63.6457 34.816C61.1177 34.816 59.1017 34.08 57.5977 32.608C56.0937 31.136 55.3417 29.216 55.3417 26.848C55.3417 24.064 56.3657 21.936 58.4137 20.464C60.4617 18.992 63.4217 18.256 67.2937 18.256H69.8857V17.152C69.8857 15.648 69.5657 14.624 68.9257 14.08C68.2857 13.504 67.1657 13.216 65.5657 13.216C64.7337 13.216 63.7257 13.344 62.5417 13.6C61.3577 13.824 60.1417 14.144 58.8937 14.56L57.1657 9.56802C58.7657 8.96002 60.3977 8.49602 62.0617 8.17602C63.7577 7.85602 65.3257 7.69602 66.7657 7.69602C70.4137 7.69602 73.0857 8.44802 74.7817 9.95202C76.4777 11.456 77.3257 13.712 77.3257 16.72V26.608ZM65.8537 29.392C67.5817 29.392 68.9257 28.576 69.8857 26.944V22.432H68.0137C66.2857 22.432 64.9897 22.736 64.1257 23.344C63.2937 23.952 62.8777 24.896 62.8777 26.176C62.8777 27.2 63.1337 28 63.6457 28.576C64.1897 29.12 64.9257 29.392 65.8537 29.392Z" fill="#222222"/>
<path d="M98.2946 7.69602C100.503 7.69602 102.231 8.36802 103.479 9.71202C104.727 11.056 105.351 12.944 105.351 15.376V34H97.7666V16.672C97.7666 15.392 97.5586 14.512 97.1426 14.032C96.7586 13.52 96.1666 13.264 95.3666 13.264C93.8306 13.264 92.3586 14.368 90.9506 16.576V34H83.3666V8.51202H89.9906L90.5186 11.536C91.6066 10.256 92.7746 9.29602 94.0226 8.65602C95.3026 8.01602 96.7266 7.69602 98.2946 7.69602Z" fill="#222222"/>
</svg>
